<svg xmlns="http://www.w3.org/2000/svg" version="1.1" xmlns:xlink="http://www.w3.org/1999/xlink" width="58" height="58"><svg width="58" height="58" viewBox="0 0 58 58" fill="none" xmlns="http://www.w3.org/2000/svg">
<rect width="57.44" height="57.81" rx="4" fill="#161616"></rect>
<path d="M26.722 26.5C26.722 26.944 26.722 27.388 26.796 27.758H32.642C32.568 22.06 31.532 20.95 29.756 20.95C27.832 20.95 26.722 22.43 26.722 26.5ZM49.366 30.274C49.366 43.668 45.074 49.81 30.866 49.81C17.768 49.81 8 45.74 8 28.572C8 13.846 14.068 8 29.682 8C44.852 8 49.44 15.03 49.44 24.206C49.44 25.686 49.44 27.166 49.366 28.794C43.594 28.942 35.01 28.794 26.944 28.794C27.684 32.864 30.792 33.974 37.526 33.974C45.518 33.974 47.664 32.79 47.516 30.274H49.366Z" fill="white"></path>
</svg><style>@media (prefers-color-scheme: light) { :root { filter: none; } }
@media (prefers-color-scheme: dark) { :root { filter: none; } }
</style></svg>